<?xml version="1.0" encoding="UTF-8" standalone="no"?>
<!-- Created with Inkscape (http://www.inkscape.org/) -->
<svg
   xmlns:svg="http://www.w3.org/2000/svg"
   xmlns="http://www.w3.org/2000/svg"
   xmlns:xlink="http://www.w3.org/1999/xlink"
   version="1.0"
   width="612"
   height="792"
   viewBox="0 0 612 792"
   id="Layer_1"
   xml:space="preserve"><defs
   id="defs32"><linearGradient
     id="linearGradient2875"><stop
       id="stop2877"
       style="stop-color:#000000;stop-opacity:1"
       offset="0" /><stop
       id="stop2879"
       style="stop-color:#ffffff;stop-opacity:1"
       offset="1" /></linearGradient><linearGradient
     id="linearGradient2781"><stop
       id="stop2783"
       style="stop-color:#000000;stop-opacity:1"
       offset="0" /><stop
       id="stop2785"
       style="stop-color:#ffffff;stop-opacity:1"
       offset="1" /></linearGradient><linearGradient
     x1="306.99033"
     y1="545.54297"
     x2="254.42194"
     y2="478.63776"
     id="linearGradient2787"
     xlink:href="#linearGradient2781"
     gradientUnits="userSpaceOnUse" /><linearGradient
     x1="306.99033"
     y1="545.54297"
     x2="254.42194"
     y2="478.63776"
     id="linearGradient2843"
     xlink:href="#linearGradient2781"
     gradientUnits="userSpaceOnUse" /><linearGradient
     x1="32.682674"
     y1="353.50864"
     x2="80.699692"
     y2="411.53867"
     id="linearGradient2881"
     xlink:href="#linearGradient2875"
     gradientUnits="userSpaceOnUse" /><linearGradient
     x1="306.99033"
     y1="545.54297"
     x2="254.42194"
     y2="478.63776"
     id="linearGradient2889"
     xlink:href="#linearGradient2781"
     gradientUnits="userSpaceOnUse" /><linearGradient
     x1="32.682674"
     y1="353.50864"
     x2="80.699692"
     y2="411.53867"
     id="linearGradient2909"
     xlink:href="#linearGradient2875"
     gradientUnits="userSpaceOnUse" /><linearGradient
     x1="306.99033"
     y1="545.54297"
     x2="254.42194"
     y2="478.63776"
     id="linearGradient2936"
     xlink:href="#linearGradient2781"
     gradientUnits="userSpaceOnUse" /><linearGradient
     x1="32.682674"
     y1="353.50864"
     x2="80.699692"
     y2="411.53867"
     id="linearGradient2942"
     xlink:href="#linearGradient2875"
     gradientUnits="userSpaceOnUse" /><linearGradient
     x1="32.682674"
     y1="353.50864"
     x2="80.699692"
     y2="411.53867"
     id="linearGradient2965"
     xlink:href="#linearGradient2875"
     gradientUnits="userSpaceOnUse" /><linearGradient
     x1="306.99033"
     y1="545.54297"
     x2="254.42194"
     y2="478.63776"
     id="linearGradient2985"
     xlink:href="#linearGradient2781"
     gradientUnits="userSpaceOnUse" /><linearGradient
     x1="32.682674"
     y1="353.50864"
     x2="80.699692"
     y2="411.53867"
     id="linearGradient3013"
     xlink:href="#linearGradient2875"
     gradientUnits="userSpaceOnUse" /><linearGradient
     x1="284.46103"
     y1="489.10593"
     x2="270.35175"
     y2="452.91931"
     id="linearGradient3071"
     xlink:href="#linearGradient2875"
     gradientUnits="userSpaceOnUse"
     gradientTransform="translate(-240.0851,-39.824542)" /><linearGradient
     x1="259.2009"
     y1="457.24628"
     x2="269.66907"
     y2="477.04477"
     id="linearGradient3073"
     xlink:href="#linearGradient2781"
     gradientUnits="userSpaceOnUse"
     gradientTransform="translate(-240.0851,-39.824542)" /><linearGradient
     x1="306.99033"
     y1="545.54297"
     x2="246.00189"
     y2="468.39716"
     id="linearGradient3075"
     xlink:href="#linearGradient2781"
     gradientUnits="userSpaceOnUse"
     gradientTransform="translate(-240.31266,-37.321285)" /><linearGradient
     x1="32.682674"
     y1="353.50864"
     x2="80.699692"
     y2="411.53867"
     id="linearGradient3077"
     xlink:href="#linearGradient2875"
     gradientUnits="userSpaceOnUse" /><linearGradient
     x1="32.682674"
     y1="353.50864"
     x2="80.699692"
     y2="411.53867"
     id="linearGradient3079"
     xlink:href="#linearGradient2875"
     gradientUnits="userSpaceOnUse" /><linearGradient
     x1="32.682674"
     y1="353.50864"
     x2="80.699692"
     y2="411.53867"
     id="linearGradient3081"
     xlink:href="#linearGradient2875"
     gradientUnits="userSpaceOnUse" /><linearGradient
     x1="32.682674"
     y1="353.50864"
     x2="80.699692"
     y2="411.53867"
     id="linearGradient3122"
     xlink:href="#linearGradient2875"
     gradientUnits="userSpaceOnUse" /><linearGradient
     x1="284.46103"
     y1="489.10593"
     x2="270.35175"
     y2="452.91931"
     id="linearGradient3158"
     xlink:href="#linearGradient2875"
     gradientUnits="userSpaceOnUse"
     gradientTransform="translate(-240.0851,-39.824542)" /><linearGradient
     x1="259.2009"
     y1="457.24628"
     x2="269.66907"
     y2="477.04477"
     id="linearGradient3160"
     xlink:href="#linearGradient2781"
     gradientUnits="userSpaceOnUse"
     gradientTransform="translate(-240.0851,-39.824542)" /><linearGradient
     x1="306.99033"
     y1="545.54297"
     x2="246.00189"
     y2="468.39716"
     id="linearGradient3162"
     xlink:href="#linearGradient2781"
     gradientUnits="userSpaceOnUse"
     gradientTransform="translate(-240.31266,-37.321285)" /><linearGradient
     x1="32.682674"
     y1="353.50864"
     x2="80.699692"
     y2="411.53867"
     id="linearGradient3164"
     xlink:href="#linearGradient2875"
     gradientUnits="userSpaceOnUse" /><linearGradient
     x1="32.682674"
     y1="353.50864"
     x2="80.699692"
     y2="411.53867"
     id="linearGradient3166"
     xlink:href="#linearGradient2875"
     gradientUnits="userSpaceOnUse" /><linearGradient
     x1="32.682674"
     y1="353.50864"
     x2="80.699692"
     y2="411.53867"
     id="linearGradient3168"
     xlink:href="#linearGradient2875"
     gradientUnits="userSpaceOnUse" /><linearGradient
     x1="306.99033"
     y1="545.54297"
     x2="246.00189"
     y2="468.39716"
     id="linearGradient3183"
     xlink:href="#linearGradient2781"
     gradientUnits="userSpaceOnUse"
     gradientTransform="matrix(10.360828,0,0,10.304096,-2455.6029,-4636.1356)" /><linearGradient
     x1="259.2009"
     y1="457.24628"
     x2="269.66907"
     y2="477.04477"
     id="linearGradient3186"
     xlink:href="#linearGradient2781"
     gradientUnits="userSpaceOnUse"
     gradientTransform="matrix(10.360828,0,0,10.304096,-2453.2452,-4661.9294)" /><linearGradient
     x1="284.46103"
     y1="489.10593"
     x2="270.35175"
     y2="452.91931"
     id="linearGradient3189"
     xlink:href="#linearGradient2875"
     gradientUnits="userSpaceOnUse"
     gradientTransform="matrix(10.360828,0,0,10.304096,-2453.2452,-4661.9294)" /></defs>

<path
   d="M 444.15111,6.6129255 C 445.02702,26.547023 446.50665,43.000089 443.41518,58.405743 C 433.82178,106.21118 407.75871,132.97164 407.75871,132.97164 L 292.19672,132.97164 C 310.28652,34.974847 443.69762,-3.7076571 444.15111,6.6129255 z"
   id="rect2570"
   style="fill:url(#linearGradient3189);fill-opacity:1" /><path
   d="M 292.19672,162.81519 C 292.19672,162.81519 352.9091,160.70512 352.85077,162.81519 C 352.0994,190.01584 292.19672,185.67411 292.19672,185.67411 L 292.19672,162.81519 z"
   id="rect2573"
   style="fill:url(#linearGradient3186);fill-opacity:1" /><path
   d="M 217.05414,226.07183 C 217.05414,226.07183 250.66892,254.58718 303.88514,254.01035 C 363.5749,253.35543 368.00913,227.85423 396.44753,223.5397 C 422.29842,219.61776 457.35221,217.85442 482.33413,225.54034 C 514.47404,235.42846 595.29057,296.02376 576.69434,312.50228 C 520.22793,362.53845 523.98725,373.69047 513.41423,406.40618 C 506.9183,426.50618 511.57964,455.17722 515.81722,475.51029 C 524.37879,516.59118 564.6249,560.08734 572.61227,600.44643 C 575.69773,616.03704 578.08497,653.89223 570.69946,667.98246 C 558.62744,691.01366 524.04651,699.20923 501.17043,705.47257 C 491.74653,708.05282 476.22819,709.82729 467.97693,715.03869 C 447.23621,728.13808 442.51913,759.16093 430.81916,779.04176 C 421.83871,794.30151 389.06161,790.46199 371.55999,787.35304 C 364.35114,786.07245 356.74981,772.9643 348.57771,770.28328 C 326.571,763.06351 301.34715,761.91862 279.63437,769.97065 C 274.89678,771.7275 261.70848,784.79979 254.71814,786.60651 C 245.26367,789.05013 225.06047,791.27756 216.41063,786.76334 C 194.76635,775.46758 195.84988,728.32088 180.01905,714.77965 C 170.51693,706.65167 150.21945,706.14121 138.52301,701.66274 C 118.8996,694.14909 89.100928,689.24476 78.500868,671.18384 C 67.739284,652.8475 72.738901,621.05637 77.744113,600.41685 C 81.986044,582.92524 102.54224,565.02558 105.80393,547.32727 C 113.02698,508.13636 114.57924,446.66841 89.632335,415.49192 C 87.45366,412.76937 79.434379,408.14345 78.668714,411.53855 C 69.259735,453.25819 65.848225,517.94163 91.837948,543.85716 C 99.435232,551.43283 72.629905,548.25371 68.122116,545.31282 C 46.794455,531.39889 40.319249,492.23044 35.069935,467.40623 C 28.50231,436.34803 24.892287,392.20384 33.442974,361.62675 C 49.547431,304.03695 48.107069,268.89524 170.62748,224.62503 C 183.7246,219.89267 217.05414,226.07183 217.05414,226.07183 z"
   id="rect2576"
   style="fill:url(#linearGradient3183);fill-opacity:1" /><g
   transform="matrix(10.360828,0,0,10.304096,-1413.4546,-4629.1009)"
   id="g2736"><path
     d="M 65.56673,399.30829 C 65.56673,403.23712 61.98077,408.27442 58.01793,408.27442 C 54.055084,408.27442 50.838863,404.77769 50.838863,400.84887 C 50.838863,396.92004 54.055084,394.43854 58.01793,394.43854 C 61.98077,394.43854 65.56673,395.37947 65.56673,399.30829 z"
     transform="translate(99.534811,100.32412)"
     id="path2585"
     style="fill:#000000;fill-opacity:1" /><path
     d="M 68.4075,399.43154 C 68.4075,403.36037 71.99346,408.39767 75.9563,408.39767 C 79.91915,408.39767 83.13537,404.90094 83.13537,400.97212 C 83.13537,397.04329 79.91915,394.82695 75.9563,394.82695 C 71.99346,394.82695 68.4075,395.50272 68.4075,399.43154 z"
     transform="translate(99.534811,100.32412)"
     id="path2595"
     style="fill:#000000;fill-opacity:1" /><g
     transform="translate(56.397531,99.831138)"
     id="g2627"><g
       id="g2616"><path
         d="M 109.37873,410.14896 C 110.31978,408.98204 111.09634,410.30887 111.09634,410.30887 C 111.09634,410.30887 110.13049,416.6153 108.98589,419.10486 C 108.12622,420.97467 105.33912,419.50431 105.05795,418.41714 C 104.87889,417.72476 104.75753,417.29455 104.96573,416.87265 C 106.6724,413.41427 106.75947,413.39688 109.37873,410.14896 z"
         id="rect2609"
         style="fill:#000000;fill-opacity:1" /></g><path
       d="M 107.76764,414.00538 L 112.84444,414.00538 C 112.84444,414.00538 113.97035,419.93289 112.84444,419.28279 C 111.76505,418.65956 111.78922,418.62419 111.02542,417.39325 C 110.83535,417.08696 110.03247,417.02951 109.78927,417.37364 C 108.73398,418.86692 109.19336,418.72008 107.76764,419.28279 C 106.56333,419.75812 107.76764,414.00538 107.76764,414.00538 z"
       id="rect2620"
       style="fill:#000000;fill-opacity:1" /><g
       transform="matrix(-1,0,0,1,220.71069,-2.4478368e-8)"
       id="g2623"><path
         d="M 109.37873,410.14896 C 110.31978,408.98204 111.36151,410.39725 111.36151,410.39725 C 111.36151,410.39725 110.13049,416.6153 108.98589,419.10486 C 108.12622,420.97467 105.33912,419.50431 105.05795,418.41714 C 104.87889,417.72476 104.75753,417.29455 104.96573,416.87265 C 106.6724,413.41427 106.75947,413.39688 109.37873,410.14896 z"
         id="path2625"
         style="fill:#000000;fill-opacity:1" /></g></g></g><g
   transform="matrix(10.360828,0,0,10.304096,-379.83388,-3588.3168)"
   id="g2603"
   style="fill:url(#linearGradient3168);fill-opacity:1"><path
     d="M 57.001149,396.90503 A 2.0951774,2.0643659 0 1 1 52.810794,396.90503 A 2.0951774,2.0643659 0 1 1 57.001149,396.90503 z"
     transform="matrix(1.4852941,0,0,1.4626866,-23.595212,-179.54471)"
     id="path2581"
     style="fill:url(#linearGradient3164);fill-opacity:1" /><path
     d="M 57.001149,396.90503 A 2.0951774,2.0643659 0 1 1 52.810794,396.90503 A 2.0951774,2.0643659 0 1 1 57.001149,396.90503 z"
     transform="matrix(1.4852941,0,0,1.4626866,-5.570527,-179.42149)"
     id="path2583"
     style="fill:url(#linearGradient3166);fill-opacity:1" /></g></svg>