<?xml version="1.0" encoding="utf-8"?>
<!-- Generator: Adobe Illustrator 14.0.0, SVG Export Plug-In . SVG Version: 6.00 Build 43363)  -->
<!DOCTYPE svg PUBLIC "-//W3C//DTD SVG 1.1//EN" "http://www.w3.org/Graphics/SVG/1.1/DTD/svg11.dtd">
<svg version="1.1" id="Layer_1" xmlns="http://www.w3.org/2000/svg" xmlns:xlink="http://www.w3.org/1999/xlink" x="0px" y="0px"
	 width="612px" height="792px" viewBox="0 0 612 792" enable-background="new 0 0 612 792" xml:space="preserve">
<g>
	<defs>
		<rect id="SVGID_1_" x="132" y="181" width="314.961" height="472.94"/>
	</defs>
	<clipPath id="SVGID_2_">
		<use xlink:href="#SVGID_1_"  overflow="visible"/>
	</clipPath>
	<g clip-path="url(#SVGID_2_)">
		<path fill-rule="evenodd" clip-rule="evenodd" fill="#FFFFFF" d="M306.979,355.978c0.16,5.493-2.417,8.249-4,11.999
			c-3.666,0-7.333,0-10.999,0C293.976,360.974,298.6,356.599,306.979,355.978z"/>
		<path fill-rule="evenodd" clip-rule="evenodd" fill="#FFFFFF" d="M296.979,370.976c-0.112,2.555-3.348,1.985-6,2
			C290.033,369.363,294.918,371.582,296.979,370.976z"/>
		<path fill-rule="evenodd" clip-rule="evenodd" fill="#FFFFFF" d="M317.977,380.975c-12.179,9.445-0.399,24.761-1,35.996
			c-9.79,5.959-15.779,12.301-30.996,10.998c-3.002-6.329-11.812-6.853-15.998-11.998c0.877-9.268,5.15-17.018,1-25.997
			c-2.683,3.729-0.068,10.7,0,14.998c-15.185-12.318,2.779-40.113,20.998-27.996C300.413,372.37,313.776,373.383,317.977,380.975z
			 M290.98,398.973C263.54,394.708,292.6,426.393,290.98,398.973L290.98,398.973z M295.979,399.973
			c0.308,5.358,2.549,8.783,5.999,10.999c5.709-0.315,8.567-6.458,5.999-11.999C304.233,397.15,298.919,398.145,295.979,399.973z
			 M288.98,421.97c6.012-2.461,3.679-2.191,9.999,0c-0.4-4.933-2.182-8.483-5.999-9.999
			C291.352,415.009,288.575,416.898,288.98,421.97z"/>
		<path fill-rule="evenodd" clip-rule="evenodd" d="M290.98,398.973C292.6,426.393,263.54,394.708,290.98,398.973L290.98,398.973z
			 M284.981,407.972c0.261-1.405,2.193-1.14,3-2c0.229-3.562-1.438-5.228-5-4.999C280.855,403.217,282.269,407.561,284.981,407.972z
			"/>
		<path fill-rule="evenodd" clip-rule="evenodd" d="M307.978,398.973c2.568,5.541-0.29,11.684-5.999,11.999
			c-3.45-2.216-5.691-5.641-5.999-10.999C298.919,398.145,304.233,397.15,307.978,398.973z M301.979,407.972c0.667,0,1.333,0,2,0
			c1.512-1.413,3.158-4.856,1-6.999c-1.333,0-2.667,0-4,0C298.821,403.115,300.467,406.559,301.979,407.972z"/>
		<path fill-rule="evenodd" clip-rule="evenodd" fill="#FFFFFF" d="M282.981,400.973c3.562-0.229,5.228,1.438,5,4.999
			c-0.807,0.86-2.739,0.595-3,2C282.269,407.561,280.855,403.217,282.981,400.973z"/>
		<path fill-rule="evenodd" clip-rule="evenodd" fill="#FFFFFF" d="M300.979,400.973c1.333,0,2.666,0,4,0
			c2.158,2.143,0.512,5.586-1,6.999c-0.667,0-1.333,0-2,0C300.467,406.559,298.821,403.115,300.979,400.973z"/>
		<path fill-rule="evenodd" clip-rule="evenodd" d="M292.98,411.971c3.817,1.516,5.599,5.066,5.999,9.999
			c-6.32-2.191-3.986-2.461-9.999,0C288.575,416.898,291.352,415.009,292.98,411.971z"/>
		<path fill-rule="evenodd" clip-rule="evenodd" d="M133,181c104.654,0,209.307,0,313.961,0c0,157.648,0,315.29,0,472.94
			c-104.987,0-209.974,0-314.961,0c0-156.645,0-313.297,0-469.941C131.914,182.581,131.835,181.168,133,181z M291.98,367.977
			c3.666,0,7.333,0,10.999,0c1.583-3.75,4.16-6.506,4-11.999C298.6,356.599,293.976,360.974,291.98,367.977z M290.98,372.976
			c2.651-0.015,5.888,0.555,6-2C294.918,371.582,290.033,369.363,290.98,372.976z M291.98,376.976
			c-18.219-12.117-36.183,15.678-20.998,27.996c-0.068-4.298-2.683-11.269,0-14.998c4.15,8.979-0.122,16.729-1,25.997
			c4.187,5.146,12.996,5.669,15.998,11.998c15.217,1.303,21.206-5.039,30.996-10.998c0.601-11.234-11.179-26.551,1-35.996
			C313.776,373.383,300.413,372.37,291.98,376.976z"/>
	</g>
</g>
</svg>
